<svg data-v-423bf9ae="" xmlns="http://www.w3.org/2000/svg" viewBox="0 0 243.12897124883557 60" class="font"><!----><!----><!----><g data-v-423bf9ae="" id="d55831f4-2b73-4768-8e35-d40641d3bed4" fill="white" transform="matrix(4.228329934762358,0,0,4.228329934762358,-0.4228334542475807,-11.501058258782841)"><path d="M3.72 13.80L3.72 13.80Q3.11 13.80 2.63 13.46L2.63 13.46L2.63 13.46Q2.14 13.12 1.95 12.56L1.95 12.56L0.18 7.64L0.18 7.64Q0.10 7.36 0.10 7.22L0.10 7.22L0.10 7.22Q0.10 6.69 0.48 6.32L0.48 6.32L0.48 6.32Q0.85 5.95 1.37 5.95L1.37 5.95L1.37 5.95Q1.81 5.95 2.14 6.20L2.14 6.20L2.14 6.20Q2.48 6.45 2.59 6.86L2.59 6.86L3.43 9.67L3.43 9.67Q3.57 10.14 3.68 10.74L3.68 10.74L3.68 10.74Q3.75 10.99 3.77 11.24L3.77 11.24L3.85 11.24L3.85 11.24Q3.91 10.91 3.95 10.74L3.95 10.74L3.95 10.74Q4.03 10.32 4.21 9.69L4.21 9.69L5.08 6.79L5.08 6.79Q5.19 6.43 5.50 6.19L5.50 6.19L5.50 6.19Q5.81 5.95 6.20 5.95L6.20 5.95L6.20 5.95Q6.69 5.95 7.04 6.29L7.04 6.29L7.04 6.29Q7.38 6.64 7.38 7.13L7.38 7.13L7.38 7.13Q7.38 7.32 7.31 7.53L7.31 7.53L5.50 12.56L5.50 12.56Q5.31 13.12 4.82 13.46L4.82 13.46L4.82 13.46Q4.34 13.80 3.72 13.80L3.72 13.80ZM11.44 13.90L11.44 13.90Q10.18 13.90 9.28 13.38L9.28 13.38L9.28 13.38Q8.39 12.87 7.92 11.96L7.92 11.96L7.92 11.96Q7.46 11.05 7.46 9.90L7.46 9.90L7.46 9.90Q7.46 8.72 7.94 7.81L7.94 7.81L7.94 7.81Q8.41 6.90 9.32 6.38L9.32 6.38L9.32 6.38Q10.23 5.87 11.49 5.87L11.49 5.87L11.49 5.87Q12.75 5.87 13.66 6.38L13.66 6.38L13.66 6.38Q14.57 6.90 15.04 7.81L15.04 7.81L15.04 7.81Q15.50 8.72 15.50 9.87L15.50 9.87L15.50 9.87Q15.50 11.03 15.02 11.95L15.02 11.95L15.02 11.95Q14.53 12.87 13.62 13.38L13.62 13.38L13.62 13.38Q12.70 13.90 11.44 13.90L11.44 13.90ZM11.48 12.04L11.48 12.04Q12.18 12.04 12.53 11.47L12.53 11.47L12.53 11.47Q12.88 10.89 12.88 9.88L12.88 9.88L12.88 9.88Q12.88 8.88 12.53 8.30L12.53 8.30L12.53 8.30Q12.18 7.73 11.47 7.73L11.47 7.73L11.47 7.73Q10.77 7.73 10.42 8.29L10.42 8.29L10.42 8.29Q10.07 8.86 10.07 9.87L10.07 9.87L10.07 9.87Q10.07 10.89 10.42 11.47L10.42 11.47L10.42 11.47Q10.78 12.04 11.48 12.04L11.48 12.04ZM19.43 13.86L19.43 13.86Q18.09 13.86 17.53 13.20L17.53 13.20L17.53 13.20Q16.97 12.53 16.98 11.13L16.98 11.13L17.00 7.78L16.60 7.78L16.60 7.78Q16.25 7.78 16.00 7.53L16.00 7.53L16.00 7.53Q15.75 7.28 15.75 6.93L15.75 6.93L15.75 6.93Q15.75 6.57 16.00 6.31L16.00 6.31L16.00 6.31Q16.25 6.06 16.60 6.06L16.60 6.06L17.08 6.06L17.14 5.03L17.14 5.03Q17.16 4.56 17.51 4.23L17.51 4.23L17.51 4.23Q17.85 3.91 18.33 3.91L18.33 3.91L18.33 3.91Q18.82 3.91 19.17 4.26L19.17 4.26L19.17 4.26Q19.52 4.61 19.52 5.10L19.52 5.10L19.52 6.06L20.34 6.06L20.34 6.06Q20.69 6.06 20.94 6.31L20.94 6.31L20.94 6.31Q21.20 6.57 21.20 6.92L21.20 6.92L21.20 6.92Q21.20 7.28 20.94 7.53L20.94 7.53L20.94 7.53Q20.69 7.78 20.34 7.78L20.34 7.78L19.57 7.78L19.57 10.91L19.57 10.91Q19.57 11.48 19.82 11.72L19.82 11.72L19.82 11.72Q20.06 11.96 20.57 11.96L20.57 11.96L20.57 11.96Q20.89 12.03 21.11 12.29L21.11 12.29L21.11 12.29Q21.34 12.54 21.34 12.89L21.34 12.89L21.34 12.89Q21.34 13.19 21.18 13.42L21.18 13.42L21.18 13.42Q21.01 13.65 20.76 13.76L20.76 13.76L20.76 13.76Q20.20 13.86 19.43 13.86L19.43 13.86ZM25.75 13.90L25.75 13.90Q24.60 13.90 23.69 13.41L23.69 13.41L23.69 13.41Q22.78 12.92 22.26 12.01L22.26 12.01L22.26 12.01Q21.74 11.10 21.74 9.90L21.74 9.90L21.74 9.90Q21.74 8.74 22.22 7.82L22.22 7.82L22.22 7.82Q22.71 6.90 23.60 6.38L23.60 6.38L23.60 6.38Q24.50 5.87 25.69 5.87L25.69 5.87L25.69 5.87Q26.89 5.87 27.76 6.38L27.76 6.38L27.76 6.38Q28.63 6.89 29.07 7.71L29.07 7.71L29.07 7.71Q29.51 8.54 29.51 9.44L29.51 9.44L29.51 9.44Q29.51 10.01 29.25 10.29L29.25 10.29L29.25 10.29Q28.98 10.57 28.36 10.57L28.36 10.57L24.23 10.57L24.23 10.57Q24.30 11.26 24.72 11.66L24.72 11.66L24.72 11.66Q25.14 12.07 25.80 12.07L25.80 12.07L25.80 12.07Q26.19 12.07 26.46 11.94L26.46 11.94L26.46 11.94Q26.73 11.80 26.94 11.59L26.94 11.59L26.94 11.59Q27.13 11.41 27.29 11.32L27.29 11.32L27.29 11.32Q27.45 11.23 27.69 11.23L27.69 11.23L27.69 11.23Q28.13 11.23 28.43 11.54L28.43 11.54L28.43 11.54Q28.74 11.86 28.74 12.31L28.74 12.31L28.74 12.31Q28.74 12.80 28.32 13.15L28.32 13.15L28.32 13.15Q27.94 13.47 27.24 13.69L27.24 13.69L27.24 13.69Q26.54 13.90 25.75 13.90L25.75 13.90ZM24.25 9.04L27.01 9.04L27.01 9.04Q26.98 8.37 26.61 7.98L26.61 7.98L26.61 7.98Q26.24 7.59 25.65 7.59L25.65 7.59L25.65 7.59Q25.06 7.59 24.69 7.98L24.69 7.98L24.69 7.98Q24.32 8.37 24.25 9.04L24.25 9.04ZM33.10 13.93L33.10 13.93Q31.84 13.93 30.96 13.57L30.96 13.57L30.96 13.57Q30.09 13.20 30.09 12.40L30.09 12.40L30.09 12.40Q30.09 11.94 30.39 11.60L30.39 11.60L30.39 11.60Q30.70 11.26 31.19 11.26L31.19 11.26L31.19 11.26Q31.47 11.26 31.67 11.38L31.67 11.38L31.67 11.38Q31.86 11.49 32.06 11.72L32.06 11.72L32.06 11.72Q32.27 11.98 32.48 12.10L32.48 12.10L32.48 12.10Q32.69 12.21 33.15 12.21L33.15 12.21L33.15 12.21Q34.23 12.21 34.23 11.54L34.23 11.54L34.23 11.54Q34.23 11.31 34.07 11.17L34.07 11.17L34.07 11.17Q33.91 11.03 33.42 10.93L33.42 10.93L32.47 10.74L32.47 10.74Q31.15 10.47 30.53 9.94L30.53 9.94L30.53 9.94Q29.92 9.41 29.92 8.48L29.92 8.48L29.92 8.48Q29.92 7.28 30.86 6.57L30.86 6.57L30.86 6.57Q31.81 5.87 33.38 5.87L33.38 5.87L33.38 5.87Q34.52 5.87 35.38 6.23L35.38 6.23L35.38 6.23Q36.23 6.59 36.23 7.35L36.23 7.35L36.23 7.35Q36.23 7.85 35.93 8.16L35.93 8.16L35.93 8.16Q35.63 8.46 35.18 8.46L35.18 8.46L35.18 8.46Q34.68 8.46 34.31 7.99L34.31 7.99L34.31 7.99Q34.17 7.80 33.96 7.69L33.96 7.69L33.96 7.69Q33.75 7.57 33.33 7.57L33.33 7.57L33.33 7.57Q32.89 7.57 32.63 7.73L32.63 7.73L32.63 7.73Q32.37 7.88 32.37 8.18L32.37 8.18L32.37 8.18Q32.37 8.41 32.56 8.54L32.56 8.54L32.56 8.54Q32.76 8.67 33.24 8.76L33.24 8.76L34.33 8.99L34.33 8.99Q35.59 9.25 36.16 9.79L36.16 9.79L36.16 9.79Q36.72 10.32 36.72 11.26L36.72 11.26L36.72 11.26Q36.72 12.49 35.82 13.21L35.82 13.21L35.82 13.21Q34.92 13.93 33.10 13.93L33.10 13.93ZM38.89 13.69L38.89 13.69Q38.39 13.69 38.03 13.34L38.03 13.34L38.03 13.34Q37.67 12.98 37.67 12.47L37.67 12.47L37.67 12.47Q37.67 11.96 38.03 11.60L38.03 11.60L38.03 11.60Q38.39 11.24 38.89 11.24L38.89 11.24L39.28 11.24L39.28 11.24Q39.79 11.24 40.14 11.60L40.14 11.60L40.14 11.60Q40.50 11.96 40.50 12.47L40.50 12.47L40.50 12.47Q40.50 12.98 40.14 13.34L40.14 13.34L40.14 13.34Q39.79 13.69 39.28 13.69L39.28 13.69L38.89 13.69ZM43.81 13.80L43.81 13.80Q43.27 13.80 42.89 13.42L42.89 13.42L42.89 13.42Q42.50 13.03 42.50 12.50L42.50 12.50L42.50 7.78L42.11 7.78L42.11 7.78Q41.76 7.78 41.51 7.53L41.51 7.53L41.51 7.53Q41.26 7.28 41.26 6.92L41.26 6.92L41.26 6.92Q41.26 6.57 41.51 6.31L41.51 6.31L41.51 6.31Q41.76 6.06 42.11 6.06L42.11 6.06L42.50 6.06L42.50 5.82L42.50 5.82Q42.50 4.24 43.25 3.48L43.25 3.48L43.25 3.48Q43.99 2.72 45.67 2.72L45.67 2.72L45.67 2.72Q46.24 2.72 46.57 2.93L46.57 2.93L46.57 2.93Q46.90 3.15 46.90 3.70L46.90 3.70L46.90 3.70Q46.90 4.10 46.69 4.42L46.69 4.42L46.69 4.42Q46.48 4.73 46.10 4.73L46.10 4.73L46.10 4.73Q45.56 4.73 45.33 4.95L45.33 4.95L45.33 4.95Q45.11 5.17 45.11 5.74L45.11 5.74L45.11 6.06L45.88 6.06L45.88 6.06Q46.23 6.06 46.48 6.31L46.48 6.31L46.48 6.31Q46.73 6.57 46.73 6.92L46.73 6.92L46.73 6.92Q46.73 7.28 46.48 7.53L46.48 7.53L46.48 7.53Q46.23 7.78 45.88 7.78L45.88 7.78L45.11 7.78L45.11 12.50L45.11 12.50Q45.11 13.03 44.72 13.42L44.72 13.42L44.72 13.42Q44.34 13.80 43.81 13.80L43.81 13.80ZM49.74 16.91L49.74 16.91Q49.27 16.91 48.92 16.57L48.92 16.57L48.92 16.57Q48.57 16.23 48.57 15.74L48.57 15.74L48.57 15.74Q48.57 15.57 48.65 15.32L48.65 15.32L49.21 13.80L46.90 7.64L46.90 7.64Q46.82 7.45 46.82 7.21L46.82 7.21L46.82 7.21Q46.82 6.68 47.19 6.31L47.19 6.31L47.19 6.31Q47.56 5.95 48.08 5.95L48.08 5.95L48.08 5.95Q48.48 5.95 48.81 6.19L48.81 6.19L48.81 6.19Q49.14 6.43 49.27 6.80L49.27 6.80L50.20 9.58L50.20 9.58Q50.40 10.16 50.47 10.61L50.47 10.61L50.47 10.61Q50.50 10.78 50.53 11.09L50.53 11.09L50.61 11.09L50.61 11.09Q50.62 10.86 50.69 10.61L50.69 10.61L50.69 10.61Q50.82 10.01 50.96 9.58L50.96 9.58L51.86 6.76L51.86 6.76Q51.97 6.41 52.28 6.18L52.28 6.18L52.28 6.18Q52.58 5.95 52.98 5.95L52.98 5.95L52.98 5.95Q53.47 5.95 53.80 6.29L53.80 6.29L53.80 6.29Q54.14 6.64 54.14 7.13L54.14 7.13L54.14 7.13Q54.14 7.32 54.07 7.53L54.07 7.53L50.85 16.14L50.85 16.14Q50.72 16.49 50.42 16.70L50.42 16.70L50.42 16.70Q50.12 16.91 49.74 16.91L49.74 16.91ZM55.86 4.98L55.86 4.98Q55.41 4.98 55.09 4.66L55.09 4.66L55.09 4.66Q54.77 4.34 54.77 3.89L54.77 3.89L54.77 3.89Q54.77 3.44 55.09 3.12L55.09 3.12L55.09 3.12Q55.41 2.80 55.86 2.80L55.86 2.80L56.50 2.80L56.50 2.80Q56.95 2.80 57.27 3.12L57.27 3.12L57.27 3.12Q57.60 3.44 57.60 3.89L57.60 3.89L57.60 3.89Q57.60 4.34 57.27 4.66L57.27 4.66L57.27 4.66Q56.95 4.98 56.50 4.98L56.50 4.98L55.86 4.98ZM56.18 13.80L56.18 13.80Q55.65 13.80 55.27 13.42L55.27 13.42L55.27 13.42Q54.88 13.03 54.88 12.50L54.88 12.50L54.88 7.25L54.88 7.25Q54.88 6.72 55.27 6.33L55.27 6.33L55.27 6.33Q55.65 5.95 56.18 5.95L56.18 5.95L56.18 5.95Q56.71 5.95 57.10 6.33L57.10 6.33L57.10 6.33Q57.48 6.72 57.48 7.25L57.48 7.25L57.48 12.50L57.48 12.50Q57.48 13.03 57.10 13.42L57.10 13.42L57.10 13.42Q56.71 13.80 56.18 13.80L56.18 13.80Z"></path></g><!----><!----></svg>